# xmcd
#
# Track frame offsets:
#	150
#	25065
#	80507
#	129772
#	181825
#
# Disc length: 3117 seconds
#
# Revision: 1
# Processed by: cddbd v1.5.1PL0 Copyright (c) Steve Scherf et al.
# Submitted via: CDex 1.50Beta5
#
DISCID=2e0c2b05
DTITLE=らいむいろ戦奇譚 - らいむいろ戦奇譚 Drama Cd５「あまのはら乙女星」
DYEAR=1900
DGENRE=Soundtrack
TTITLE0=朝礼
TTITLE1=第１話　ひみつきち、つくっちゃうの
TTITLE2=第２話　目覚めるココロ・前編
TTITLE3=第３話　目覚めるココロ・後編
TTITLE4=コメント
EXTD=
EXTT0=
EXTT1=
EXTT2=
EXTT3=
EXTT4=
PLAYORDER=
